<svg width="70" height="70" viewBox="0 0 70 70" fill="none" xmlns="http://www.w3.org/2000/svg">
<rect x="0.5" y="0.5" width="69" height="69" fill="black"/>
<rect x="0.5" y="0.5" width="69" height="69" stroke="black"/>
<path d="M61.25 21.875L49.5833 27.7083M49.5833 27.7083L48.125 28.4375L35 35M49.5833 27.7083V37.9167M49.5833 27.7083L21.875 13.125M35 35L8.74999 21.875M35 35V62.7083M45.4358 9.86417L51.2692 12.9267C57.5429 16.2196 60.6812 17.8646 62.4254 20.825C64.1667 23.7825 64.1667 27.4662 64.1667 34.8308V35.1721C64.1667 42.5337 64.1667 46.2175 62.4254 49.175C60.6812 52.1354 57.5429 53.7833 51.2692 57.0762L45.4358 60.1358C40.3142 62.8221 37.7533 64.1667 35 64.1667C32.2467 64.1667 29.6858 62.825 24.5642 60.1358L18.7308 57.0733C12.4571 53.7804 9.31874 52.1354 7.57458 49.175C5.83333 46.2175 5.83333 42.5337 5.83333 35.175V34.8337C5.83333 27.4692 5.83333 23.7854 7.57458 20.8279C9.31874 17.8675 12.4571 16.2196 18.7308 12.9296L24.5642 9.86708C29.6858 7.17792 32.2467 5.83333 35 5.83333C37.7533 5.83333 40.3142 7.175 45.4358 9.86417Z" stroke="white" stroke-width="1.5" stroke-linecap="round"/>
</svg>
